<svg width="53" height="53" viewBox="0 0 53 53" fill="none" xmlns="http://www.w3.org/2000/svg">
<rect width="52.5" height="52.5" rx="26.25" fill="#155DFC"/>
<path d="M16 35C16 32 17.85 29.64 21.08 29C23.5 28.52 26 27 27 26M25 34C23.2441 34.0053 21.5503 33.3505 20.2545 32.1654C18.9588 30.9803 18.1558 29.3515 18.0047 27.6021C17.8537 25.8527 18.3657 24.1104 19.4391 22.7207C20.5126 21.3311 22.0691 20.3957 23.8 20.1C29.5 19 31 18.48 33 16C34 18 35 20.18 35 24C35 29.5 30.22 34 25 34Z" stroke="white" stroke-width="2" stroke-linecap="round" stroke-linejoin="round"/>
</svg>
